<?xml version="1.0" standalone="no"?>
<!DOCTYPE svg PUBLIC "-//W3C//DTD SVG 20010904//EN"
 "http://www.w3.org/TR/2001/REC-SVG-20010904/DTD/svg10.dtd">
<svg version="1.0" xmlns="http://www.w3.org/2000/svg"
 width="500.000000pt" height="126.000000pt" viewBox="0 0 500.000000 126.000000"
 preserveAspectRatio="xMidYMid meet">

<g transform="translate(0.000000,126.000000) scale(0.100000,-0.100000)"
fill="#000000" stroke="none">
<path d="M557 1088 c6 -7 55 -101 110 -208 55 -107 149 -288 207 -403 115
-222 123 -251 76 -274 -21 -11 -1 -13 130 -13 168 0 200 8 200 52 0 28 -406
818 -432 841 -17 14 -41 17 -160 17 -111 0 -138 -3 -131 -12z"/>
<path d="M405 883 c-126 -268 -329 -671 -359 -715 l-25 -38 142 0 c78 0 147 4
154 8 6 4 87 160 178 347 l167 340 -48 94 c-27 51 -57 106 -66 122 -35 58 -48
43 -143 -158z"/>
<path d="M4610 1051 c-89 -28 -146 -79 -188 -170 -21 -45 -24 -64 -20 -125 6
-83 29 -134 85 -188 56 -54 124 -82 203 -81 77 0 143 24 134 47 -7 19 -9 19
-59 1 -62 -22 -85 -20 -85 10 0 20 5 25 27 25 44 0 113 40 144 83 34 46 36 57
12 57 -10 -1 -27 -15 -38 -33 -47 -75 -156 -96 -234 -44 -135 89 -69 307 93
307 59 0 100 -21 142 -74 16 -20 35 -36 42 -36 15 0 15 5 -2 39 -30 56 -114
111 -173 111 -7 0 -13 10 -13 21 0 20 4 21 54 16 40 -4 56 -2 60 8 10 28 -117
46 -184 26z"/>
<path d="M4840 985 c0 -8 7 -15 15 -15 8 0 15 7 15 15 0 8 -7 15 -15 15 -8 0
-15 -7 -15 -15z"/>
<path d="M4904 930 c-8 -8 -5 -24 10 -53 29 -58 28 -157 -2 -214 -18 -34 -19
-43 -8 -52 10 -9 17 -6 28 11 45 69 52 186 17 267 -22 53 -28 58 -45 41z"/>
<path d="M1643 843 l-63 -4 0 -324 0 -325 65 0 65 0 0 330 c0 182 -1 329 -2
328 -2 -1 -31 -3 -65 -5z"/>
<path d="M2790 515 l0 -325 60 0 60 0 0 325 0 325 -60 0 -60 0 0 -325z"/>
<path d="M4860 776 c0 -9 7 -16 16 -16 17 0 14 22 -4 28 -7 2 -12 -3 -12 -12z"/>
<path d="M2028 640 c-15 -4 -40 -17 -57 -29 -36 -26 -39 -26 -43 2 -3 19 -10
22 -50 25 l-48 3 0 -225 0 -226 55 0 55 0 0 165 0 165 33 20 c43 27 98 26 123
-1 17 -19 19 -40 22 -185 l3 -164 55 0 54 0 0 153 c0 83 -5 170 -11 192 -23
86 -106 131 -191 105z"/>
<path d="M2444 641 c-34 -9 -114 -51 -114 -61 0 -3 7 -16 16 -28 17 -25 48
-28 84 -7 14 8 43 14 66 15 51 0 76 -25 78 -77 l1 -38 -69 -7 c-44 -4 -88 -17
-125 -35 -46 -23 -58 -34 -68 -65 -16 -49 0 -103 40 -132 43 -32 133 -28 188
8 22 15 42 26 44 24 1 -2 8 -13 14 -25 9 -18 20 -23 51 -23 l40 0 0 134 c0
202 -16 261 -83 301 -32 19 -118 28 -163 16z m134 -303 c-3 -35 -8 -45 -36
-61 -37 -22 -95 -25 -117 -7 -16 14 -19 47 -6 68 11 19 79 41 124 42 l38 0 -3
-42z"/>
<path d="M3700 635 c-19 -9 -42 -23 -52 -32 -16 -14 -18 -14 -27 11 -9 22 -16
26 -53 26 l-43 0 0 -225 0 -225 58 0 57 0 0 169 c0 164 1 170 22 185 12 9 39
16 60 16 62 0 68 -18 68 -207 l0 -163 54 0 55 0 3 164 c3 188 10 206 78 206
68 0 75 -18 78 -206 l3 -164 55 0 56 0 -4 178 c-2 146 -6 183 -21 209 -44 81
-179 93 -250 22 l-29 -30 -32 35 c-37 42 -85 53 -136 31z"/>
<path d="M3020 457 c5 -196 11 -218 63 -251 53 -34 137 -28 190 14 32 25 34
25 41 -5 6 -22 12 -25 51 -25 l45 0 0 225 0 225 -55 0 -55 0 0 -164 0 -165
-26 -20 c-18 -14 -41 -21 -70 -21 -69 0 -74 14 -74 207 l0 163 -57 0 -58 0 5
-183z"/>
<path d="M4855 580 c-8 -13 4 -32 16 -25 12 8 12 35 0 35 -6 0 -13 -4 -16 -10z"/>
</g>
</svg>
